<svg id="visual" viewBox="0 0 900 600" width="900" height="600" xmlns="http://www.w3.org/2000/svg" xmlns:xlink="http://www.w3.org/1999/xlink" version="1.1"><path d="M0 390L21.5 384.3C43 378.7 86 367.3 128.8 371.5C171.7 375.7 214.3 395.3 257.2 395.8C300 396.3 343 377.7 385.8 369C428.7 360.3 471.3 361.7 514.2 371.7C557 381.7 600 400.3 642.8 406.5C685.7 412.7 728.3 406.3 771.2 397C814 387.7 857 375.3 878.5 369.2L900 363L900 601L878.5 601C857 601 814 601 771.2 601C728.3 601 685.7 601 642.8 601C600 601 557 601 514.2 601C471.3 601 428.7 601 385.8 601C343 601 300 601 257.2 601C214.3 601 171.7 601 128.8 601C86 601 43 601 21.5 601L0 601Z" fill="#0e2a47"></path><path d="M0 466L21.5 464.2C43 462.3 86 458.7 128.8 447C171.7 435.3 214.3 415.7 257.2 414.2C300 412.7 343 429.3 385.8 439C428.7 448.7 471.3 451.3 514.2 450.8C557 450.3 600 446.7 642.8 437.7C685.7 428.7 728.3 414.3 771.2 414.3C814 414.3 857 428.7 878.5 435.8L900 443L900 601L878.5 601C857 601 814 601 771.2 601C728.3 601 685.7 601 642.8 601C600 601 557 601 514.2 601C471.3 601 428.7 601 385.8 601C343 601 300 601 257.2 601C214.3 601 171.7 601 128.8 601C86 601 43 601 21.5 601L0 601Z" fill="#0a2b4d"></path><path d="M0 494L21.5 493C43 492 86 490 128.8 483.3C171.7 476.7 214.3 465.3 257.2 466.7C300 468 343 482 385.8 486C428.7 490 471.3 484 514.2 476.5C557 469 600 460 642.8 453.8C685.7 447.7 728.3 444.3 771.2 444.2C814 444 857 447 878.5 448.5L900 450L900 601L878.5 601C857 601 814 601 771.2 601C728.3 601 685.7 601 642.8 601C600 601 557 601 514.2 601C471.3 601 428.7 601 385.8 601C343 601 300 601 257.2 601C214.3 601 171.7 601 128.8 601C86 601 43 601 21.5 601L0 601Z" fill="#072c52"></path><path d="M0 513L21.5 515.8C43 518.7 86 524.3 128.8 523C171.7 521.7 214.3 513.3 257.2 515.5C300 517.7 343 530.3 385.8 530.2C428.7 530 471.3 517 514.2 515.7C557 514.3 600 524.7 642.8 523.8C685.7 523 728.3 511 771.2 509.2C814 507.3 857 515.7 878.5 519.8L900 524L900 601L878.5 601C857 601 814 601 771.2 601C728.3 601 685.7 601 642.8 601C600 601 557 601 514.2 601C471.3 601 428.7 601 385.8 601C343 601 300 601 257.2 601C214.3 601 171.7 601 128.8 601C86 601 43 601 21.5 601L0 601Z" fill="#052d57"></path><path d="M0 539L21.5 538.2C43 537.3 86 535.7 128.8 535C171.7 534.3 214.3 534.7 257.2 534.5C300 534.3 343 533.7 385.8 536.8C428.7 540 471.3 547 514.2 553.2C557 559.3 600 564.7 642.8 567.8C685.7 571 728.3 572 771.2 569.7C814 567.3 857 561.7 878.5 558.8L900 556L900 601L878.5 601C857 601 814 601 771.2 601C728.3 601 685.7 601 642.8 601C600 601 557 601 514.2 601C471.3 601 428.7 601 385.8 601C343 601 300 601 257.2 601C214.3 601 171.7 601 128.8 601C86 601 43 601 21.5 601L0 601Z" fill="#032e5c"></path></svg>